<svg id="Layer_1" xmlns="http://www.w3.org/2000/svg" viewBox="0 0 1205.1 303.8"><style>.st0{fill:#1e88e5}.st1{fill:#42a5f5}.st2{fill:#c0392b}.st3{fill:#e74c3c}.st4{fill:#fff}</style><title>Scrap.TF Logo v3</title><path class="st0" d="M11 47.1C-6.5 36.7-2.4 5.1 18.1.9 32.6-.2 47.9-1.4 61.6 4.4c18.6 6.6 33 20.4 48.8 31.6 13.6 9.7 25.9 22.6 43 25.6-22.4 1.7-43.8 11.3-60.8 25.9-15.3-10.3-29-23.1-44.9-32.6-11.1-7.5-25.9.4-36.7-7.8z"/><path class="st1" d="M92.6 87.5c17-14.6 38.4-24.2 60.8-25.8 15.6.8 33-3.6 47.1 4.9 16.8 10.9 12.6 39.8-6.5 45.8-13.2 2.4-26.9 1.5-40.3.9-22.9-1.2-44-11.2-61.6-25.4l.5-.4z"/><path class="st0" d="M47.2 120.6c15.9-9.5 29.8-22 44.9-32.8 17.6 14.2 38.7 24.2 61.6 25.4-7.3 2.6-15.1 4.5-21.3 9.3-15.3 11.5-30.7 23.1-46 34.7-16 11.8-35.6 19.9-55.9 18.5-11.7 1-24.5-4.3-28.8-15.8-3-11-1.8-25.3 9.1-31.7 10.8-8.1 25.3-.4 36.4-7.6z"/><path class="st2" d="M83.9 252.9l-3.7-2.8c-5-3.6-10.8-5.7-16.3-8.4 20-5.1 40.3-11.5 55.6-26-15.7-16.1-38-23.6-59.8-26.4 18.2-3.6 31-17.8 45.7-28 19.5-14.9 39.8-31.9 65.3-33.9 12.3-.7 27.5-1.9 36.2 8.9 10.3 11.5 7.2 31.7-6.4 39.3-11.7 7.4-27.1-.4-38.2 8.5-14.2 10.1-28.6 20.2-41.6 31.8 15.4 10.3 29 23.4 45.2 32.6 11.2 6.8 25.9-.9 36.4 7.7 16.7 10.6 13.1 38.9-5.6 45.3-23 6.5-47.9-1.1-67.2-14.3-15.4-11.3-30.4-22.9-45.6-34.3z"/><path class="st3" d="M1.5 216.9c-1.6-13.6 10-27.1 23.8-27.1 11.5-.2 22.9 0 34.3-.4 21.8 2.8 44.2 10.3 59.8 26.4-15.3 14.5-35.6 20.9-55.6 26-12-.7-24-.6-36-.6-13.3.6-26.1-10.8-26.3-24.3z"/><path class="st4" d="M952.2 117.1c-21.7 7.8-31.8 35.9-20.9 56 8.7 18.7 34 27.2 51.7 16.1 21.5-13.2 23.5-46.9 6.2-64.3-9.9-9.4-24.2-12.4-37-7.8zm-25.3-31.4c13-15.3 34.6-19.2 53.8-17 23.5 2.3 45.3 16.7 57 37.2 10.1 17.8 13.2 38.9 11.7 59.1-1.5 17.8-7.4 35.7-19.4 49.2-12.8 14.9-32.1 23.2-51.5 24.6-18.5 2-38.6-2.8-51.5-16.9.2 20.8.1 41.7 0 62.5h-48.4V70.6c16.1-.1 32.3-.1 48.5-.1-.2 5.2-.2 10.2-.2 15.2zm-505.4 15.1c29.1-40.1 94.8-43.6 128.9-8.1 13.1 12.8 20.5 30.4 22.6 48.5h-48.2c-3.5-9.6-9.5-18.8-19.1-23.2-16.9-8.8-40.4-1.3-48.3 16.2-10.4 20.4-1.6 50.3 21.8 56.8 19.2 6.6 40.3-6.2 45.7-25.2 16.1 0 32.2-.1 48.2 0-2.2 18.8-10.3 37.1-24.3 50.1-32 30.9-88.3 29.7-119.8-1.3-29.1-29.6-31.4-80.6-7.5-113.8zm341.8 13.5c-19.7 6.1-28.9 30-23.4 48.8 3.3 16.1 18.4 29.4 35.2 28.4 24.4.9 42.6-26.1 36.2-48.8-4.1-20.8-27.6-35.6-48-28.4zM712 89.7C729.9 71 757.8 64.5 782.8 69c11.6 2 21.9 8.7 29.7 17.3-.1-5.2-.2-10.4-.2-15.6 16.2-.1 32.3 0 48.5 0v165.4h-48.5c0-5 .1-10 .2-15-12.9 14.7-33.7 19.1-52.5 17-18.1-1.5-35-9.6-47.5-22.9-16.6-17-23-41.4-23-64.7.3-21.9 6.6-44.9 22.5-60.8zm-79.9-9.5c14.7-13.4 35.9-15.9 54.6-10.9.3 15.3-1.1 30.6-.6 45.9-14.2-3.9-31-3.4-42.3 7.2-6.7 5.7-9.4 14.6-9.2 23.2v90.5c-16.2.1-32.3 0-48.4 0V70.7h43.9c.7 3.1 1.4 6.3 2 9.5zm-332.5-10c22.5-6.2 48.3-5.6 68.9 6.4 16.3 9.4 25.5 28.2 25.1 46.8-15.2.1-30.3.1-45.5 0-2.3-14.5-19.8-15.2-31.1-12.5-6 1.4-11.3 8.7-6.9 14.4 6.8 5.1 15.7 3.9 23.6 4.8 18 1.2 36.9 6.1 49.8 19.6 15.2 15.3 16.6 40.1 8.7 59.3-8.5 19.2-29.7 28.6-49.6 30.7-21.6 2.1-45.6 1.1-63.8-12.3-14.6-10.7-21.4-29.3-21.2-47 15.9 0 31.9 0 47.8-.1 1.2 6.4 5.4 12 11.8 13.6 9.5 2.6 21.7 3.5 29.2-3.9 4.3-3.6 1.1-10.4-3.4-12.1-8.4-3.4-17.8-1.9-26.6-3.4-17.7-2.2-36.5-8.2-47.8-22.8-9.7-12.1-9.8-28.8-7-43.2 3.9-18.8 19.8-33.3 38-38.3z"/><path class="st0" d="M1142 61.5h63.1v23.3c-13.1 0-26.1 0-39.1-.1-.1 5.5-.1 11.1-.1 16.6h36.8v22H1166c-.1 11.6 0 23.3-.1 35h-23.8c-.1-32.2-.1-64.5-.1-96.8zm-82.7 0h76v22.6h-25.7c-.1 24.7.2 49.5-.1 74.2-8.1-.1-16.2-.1-24.3 0-.3-24.7 0-49.4-.1-74.2h-25.7c-.1-7.5-.1-15.1-.1-22.6z"/></svg>