<?xml version="1.0" encoding="utf-8"?>
<!-- Generator: Adobe Illustrator 20.0.0, SVG Export Plug-In . SVG Version: 6.00 Build 0)  -->
<svg version="1.1" id="Layer_1" xmlns="http://www.w3.org/2000/svg" xmlns:xlink="http://www.w3.org/1999/xlink" x="0px" y="0px"
	 viewBox="0 0 1205.1 303.8" style="enable-background:new 0 0 1205.1 303.8;" xml:space="preserve">
<style type="text/css">
	.st0{fill:#1E88E5;}
	.st1{fill:#42A5F5;}
	.st2{fill:#C0392B;}
	.st3{fill:#E74C3C;}
	.st4{fill:#FFFFFF;}
</style>
<title>Scrap.TF Logo v3</title>
<path class="st0" d="M11,47.1C-6.5,36.7-2.4,5.1,18.1,0.9c14.5-1.1,29.8-2.3,43.5,3.5c18.6,6.6,33,20.4,48.8,31.6
	c13.6,9.7,25.9,22.6,43,25.6c-22.4,1.7-43.8,11.3-60.8,25.9c-15.3-10.3-29-23.1-44.9-32.6C36.6,47.4,21.8,55.3,11,47.1z"/>
<path class="st1" d="M92.6,87.5c17-14.6,38.4-24.2,60.8-25.8c15.6,0.8,33-3.6,47.1,4.9c16.8,10.9,12.6,39.8-6.5,45.8
	c-13.2,2.4-26.9,1.5-40.3,0.9c-22.9-1.2-44-11.2-61.6-25.4L92.6,87.5z"/>
<path class="st0" d="M47.2,120.6c15.9-9.5,29.8-22,44.9-32.8c17.6,14.2,38.7,24.2,61.6,25.4c-7.3,2.6-15.1,4.5-21.3,9.3
	c-15.3,11.5-30.7,23.1-46,34.7c-16,11.8-35.6,19.9-55.9,18.5c-11.7,1-24.5-4.3-28.8-15.8c-3-11-1.8-25.3,9.1-31.7
	C21.6,120.1,36.1,127.8,47.2,120.6z"/>
<path class="st2" d="M83.9,252.9l-3.7-2.8c-5-3.6-10.8-5.7-16.3-8.4c20-5.1,40.3-11.5,55.6-26c-15.7-16.1-38-23.6-59.8-26.4
	c18.2-3.6,31-17.8,45.7-28c19.5-14.9,39.8-31.9,65.3-33.9c12.3-0.7,27.5-1.9,36.2,8.9c10.3,11.5,7.2,31.7-6.4,39.3
	c-11.7,7.4-27.1-0.4-38.2,8.5c-14.2,10.1-28.6,20.2-41.6,31.8c15.4,10.3,29,23.4,45.2,32.6c11.2,6.8,25.9-0.9,36.4,7.7
	c16.7,10.6,13.1,38.9-5.6,45.3c-23,6.5-47.9-1.1-67.2-14.3C114.1,275.9,99.1,264.3,83.9,252.9z"/>
<path class="st3" d="M1.5,216.9c-1.6-13.6,10-27.1,23.8-27.1c11.5-0.2,22.9,0,34.3-0.4c21.8,2.8,44.2,10.3,59.8,26.4
	c-15.3,14.5-35.6,20.9-55.6,26c-12-0.7-24-0.6-36-0.6C14.5,241.8,1.7,230.4,1.5,216.9z"/>
<path class="st4" d="M952.2,117.1c-21.7,7.8-31.8,35.9-20.9,56c8.7,18.7,34,27.2,51.7,16.1c21.5-13.2,23.5-46.9,6.2-64.3
	C979.3,115.5,965,112.5,952.2,117.1z M926.9,85.7c13-15.3,34.6-19.2,53.8-17c23.5,2.3,45.3,16.7,57,37.2
	c10.1,17.8,13.2,38.9,11.7,59.1c-1.5,17.8-7.4,35.7-19.4,49.2c-12.8,14.9-32.1,23.2-51.5,24.6c-18.5,2-38.6-2.8-51.5-16.9
	c0.2,20.8,0.1,41.7,0,62.5c-16.1,0-32.3,0-48.4,0c0-71.3,0-142.5,0-213.8c16.1-0.1,32.3-0.1,48.5-0.1
	C926.9,75.7,926.9,80.7,926.9,85.7z M421.5,100.8c29.1-40.1,94.8-43.6,128.9-8.1c13.1,12.8,20.5,30.4,22.6,48.5
	c-16.1,0-32.1,0-48.2,0c-3.5-9.6-9.5-18.8-19.1-23.2c-16.9-8.8-40.4-1.3-48.3,16.2c-10.4,20.4-1.6,50.3,21.8,56.8
	c19.2,6.6,40.3-6.2,45.7-25.2c16.1,0,32.2-0.1,48.2,0c-2.2,18.8-10.3,37.1-24.3,50.1c-32,30.9-88.3,29.7-119.8-1.3
	C399.9,185,397.6,134,421.5,100.8L421.5,100.8z M763.3,114.3c-19.7,6.1-28.9,30-23.4,48.8c3.3,16.1,18.4,29.4,35.2,28.4
	c24.4,0.9,42.6-26.1,36.2-48.8C807.2,121.9,783.7,107.1,763.3,114.3z M712,89.7C729.9,71,757.8,64.5,782.8,69
	c11.6,2,21.9,8.7,29.7,17.3c-0.1-5.2-0.2-10.4-0.2-15.6c16.2-0.1,32.3,0,48.5,0v165.4c-16.2,0-32.3,0-48.5,0c0-5,0.1-10,0.2-15
	c-12.9,14.7-33.7,19.1-52.5,17c-18.1-1.5-35-9.6-47.5-22.9c-16.6-17-23-41.4-23-64.7C689.8,128.6,696.1,105.6,712,89.7z M632.1,80.2
	c14.7-13.4,35.9-15.9,54.6-10.9c0.3,15.3-1.1,30.6-0.6,45.9c-14.2-3.9-31-3.4-42.3,7.2c-6.7,5.7-9.4,14.6-9.2,23.2
	c0,30.2,0,60.3,0,90.5c-16.2,0.1-32.3,0-48.4,0V70.7c14.6,0,29.3,0,43.9,0C630.8,73.8,631.5,77,632.1,80.2z M299.6,70.2
	c22.5-6.2,48.3-5.6,68.9,6.4c16.3,9.4,25.5,28.2,25.1,46.8c-15.2,0.1-30.3,0.1-45.5,0c-2.3-14.5-19.8-15.2-31.1-12.5
	c-6,1.4-11.3,8.7-6.9,14.4c6.8,5.1,15.7,3.9,23.6,4.8c18,1.2,36.9,6.1,49.8,19.6c15.2,15.3,16.6,40.1,8.7,59.3
	c-8.5,19.2-29.7,28.6-49.6,30.7c-21.6,2.1-45.6,1.1-63.8-12.3c-14.6-10.7-21.4-29.3-21.2-47c15.9,0,31.9,0,47.8-0.1
	c1.2,6.4,5.4,12,11.8,13.6c9.5,2.6,21.7,3.5,29.2-3.9c4.3-3.6,1.1-10.4-3.4-12.1c-8.4-3.4-17.8-1.9-26.6-3.4
	c-17.7-2.2-36.5-8.2-47.8-22.8c-9.7-12.1-9.8-28.8-7-43.2C265.5,89.7,281.4,75.2,299.6,70.2z"/>
<path class="st0" d="M1142,61.5c21,0,42,0,63.1,0c0,7.8,0,15.5,0,23.3c-13.1,0-26.1,0-39.1-0.1c-0.1,5.5-0.1,11.1-0.1,16.6h36.8v22
	h-36.7c-0.1,11.6,0,23.3-0.1,35c-7.9,0-15.9,0-23.8,0C1142,126.1,1142,93.8,1142,61.5z M1059.3,61.5h76v22.6h-25.7
	c-0.1,24.7,0.2,49.5-0.1,74.2c-8.1-0.1-16.2-0.1-24.3,0c-0.3-24.7,0-49.4-0.1-74.2h-25.7C1059.3,76.6,1059.3,69,1059.3,61.5
	L1059.3,61.5z"/>
</svg>
