<svg xmlns="http://www.w3.org/2000/svg" xmlns:xlink="http://www.w3.org/1999/xlink" viewBox="0 0 394.02644 150.12764"><defs><linearGradient id="linear-gradient" y1="73.56382" x2="391.02644" y2="73.56382" gradientUnits="userSpaceOnUse"><stop offset="0" stop-color="#ec7404"/><stop offset="0.12164" stop-color="#ed7803"/><stop offset="0.25522" stop-color="#ef8602"/><stop offset="0.35165" stop-color="#f29400"/><stop offset="0.4381" stop-color="#f18f01"/><stop offset="1" stop-color="#ec7404"/></linearGradient><linearGradient id="linear-gradient-2" x1="8.64297" y1="78.3194" x2="394.02644" y2="78.3194" gradientUnits="userSpaceOnUse"><stop offset="0" stop-color="#e20020"/><stop offset="0.08095" stop-color="#e20420"/><stop offset="0.17" stop-color="#e31220"/><stop offset="0.26253" stop-color="#e4281f"/><stop offset="0.35165" stop-color="#e6441f"/><stop offset="0.71511" stop-color="#e41b20"/><stop offset="1" stop-color="#e20020"/></linearGradient></defs><title>Asset 1</title><g id="Layer_2" data-name="Layer 2"><g id="Capa_1" data-name="Capa 1"><path d="M256.06436,86.62162a11.1288,11.1288,0,0,1-3.332,4.211c.1816-.127-2.2344-.9297-2.752-1.1758a10.16277,10.16277,0,0,1-3.5078-2.80761c4.6377-2.98149,9.5625-5.69729,12.90631-10.01269,2.12889-2.7461,1.06439-6.1016-2.04891-7.5645-3.7753-1.7734-9.1484-.38281-12.7812,1.0664a12.9025,12.9025,0,0,0-7.584,7.6426c-.0996-2.8027-.4785-5.8369-2.1387-7.6641-2.25-2.4736-6.9257-1.1582-9.8203.0811a63.20011,63.20011,0,0,1,.4258-9.88381c.5742-4.12109-7.3379-3.19729-7.8535.498-.8125,5.82821-.2129,11.79691-.2227,17.66021a39.53338,39.53338,0,0,1-1.06049,10.2227c-1.63281,6.0293-2.92381.7949-3.76761-2.3047-2.9736-10.9014-1.9062-22.4356-1.4707-33.8135,3.1914-.1182,6.3838-.2256,9.5781-.2432,1.752-.0097,4.043-.5664,5.0996-2.1172,1.0254-1.5039-.8632-2.3007-2.0996-2.2929-4.1543.0234-8.3047.1875-12.4531.3437.0547-3.1377.0195-6.2568-.2148-9.3379-.3204-4.2285-8.12889-3.1523-7.8536.4981.2286,3.0215.2989,6.0439.2969,9.0674-1.0156.0205-2.0303.0517-3.0469.0576-1.7519.0078-4.0449.5664-5.0996,2.1152-1.0254,1.5059.86331,2.3008,2.0996,2.2949,2-.0107,3.9991-.0556,5.9981-.1162-.1348,6.2285-.4697,12.46-.4277,18.6865.0546,7.8731-.0411,20.32429,6.7675,25.7032,6.4297,5.07809,13.4102-4.0078,14.5684-9.4805a42.56046,42.56046,0,0,0,.8301-7.3652.95219.95219,0,0,0,.2109-.4043,22.20844,22.20844,0,0,1,2.39841-6.8985,4.24878,4.24878,0,0,1,.27539.5547,14.43157,14.43157,0,0,1,.97861,4.3535c.74019,5.65239-.67391,12.1368,1.25779,17.5645.6953,1.9551,6.8476-.6973,7.6699-1.7363a23.07192,23.07192,0,0,1,2.8935-3.0069c7.044,5.9883,18.9434,1.6533,22.8916-5.7998C264.18156,84.26421,257.07806,84.70952,256.06436,86.62162Zm-18.9531,2.7764c-.0977-1.2442-.1113-2.50981-.1025-3.7647a12.09878,12.09878,0,0,0,1.4677,2.8233C238.01846,88.76612,237.56536,89.08162,237.11126,89.398Zm7.2422-6.2842c-1.93559-5.125,4.5176-17.0039,8.2168-8.7539,1.6269,3.627-4.251,7.5117-7.7696,9.8086Q244.55616,83.64847,244.35346,83.11382Zm-122.7803-32.1875c1.7012-.08011,3.9512-.623,5.1465-1.9394,1.2129-1.334-1.043-1.6602-1.9199-1.6192a129.95843,129.95843,0,0,1-32.1866-2.5859q-.2475-3.63285-.52929-7.2598c-.19231-2.4414-7.955-.8144-7.72851,2.0703.0879,1.125.1641,2.251.2471,3.377-11.1128-2.7783-22.14449-5.8106-33.46-7.6817-18.6328-3.0781-42.7177-1.7031-49.6855,19.2969-6.4873,19.5488,9.6602,37.7774,29.2148,37.17769,8.376-.25779,17.7637-3.27139,24.1211-8.85349,6.003-5.27151,8.6973-14.084,3.709-21.1074-5.4556-7.6807-20.4228-13.9219-28.8398-8.3594a9.673,9.673,0,1,0,12.5117,3.4756,26.02483,26.02483,0,0,1,8.0098,6.2276c6.288,7.1308,2.5644,16.7929-4.4756,21.4824-7.8721,5.2441-18.3389,4.4004-26.0469-.5274-8.0498-5.1484-11.9678-14.666-11.7588-23.955.2256-10.004,6.3789-19.375,16.2236-21.8457,9.4053-2.3633,20.2842.0019,29.5752,1.8945,10.5113,2.1426,20.79689,5.2285,31.25,7.6162a531.56,531.56,0,0,1,1.125,53.24709c-.1045,3.11721,7.63281,1.47851,7.71681-1.002.562-16.86419.148-33.791-.88821-50.64839A135.11968,135.11968,0,0,0,121.57316,50.92632Zm-22.623,4.4961a18.27277,18.27277,0,0,0-1.0069,5.6641c-.3047,3.59369,7.51961,2.25969,7.7774-.77931a16.10781,16.10781,0,0,1,.5205-4.36329C107.80656,52.106,100.06636,52.68612,98.95016,55.42242Zm30.9209,10.1191a14.56583,14.56583,0,0,0-10.3809,1.9229c.0503-1.4531.0815-2.90721.1455-4.3604.082-1.8867-7.4434-.5644-7.706,1.6016-.5293,4.3789-1.0704,8.752-1.8272,13.09959-.7783,4.47461-1.5869,9.84381-3.91259,13.98051a10.12732,10.12732,0,0,1-1.061-2.291,27.07813,27.07813,0,0,1-1.27541-7.5723,54.00515,54.00515,0,0,1,.85541-14.66021c.52449-2.47649-7.19331-1.17769-7.68261,1.13291-1.5166,7.1718-3.917,32.3867,9.72761,28.28509a10.95724,10.95724,0,0,0,4.664-2.74019c.07379,17.4199.65919,34.8428.90239,52.2558.0283,1.9668,7.76461.6036,7.7275-2.0703-.2197-15.7558-.7168-31.5185-.8662-47.27831a18.09364,18.09364,0,0,0,8.3818-.02249c5.4981-1.2773,9.7051-6.0742,11.7666-11.0937C142.78316,77.32672,139.13376,67.33652,129.87106,65.54152Zm-8.5088,24.9258c-4.7637-2.7207.6132-7.5722,4.0312-7.8398,4.461-.3496,5.8516-6.3946.5987-5.9824a18.42452,18.42452,0,0,0-6.7774,2.1093q.0117-.79831.0239-1.5957c1.211-3.06151,3.8555-5.9843,7.354-5.791,4.6524.2559,6.084,5.2149,6.0118,9.1094C132.50187,85.95562,127.80946,94.15092,121.36226,90.46732Zm60.4253-33.5234c-3.4834.6035-7.5469,2.4121-9.8614,5.1797a10.6954,10.6954,0,0,0-2.457,5.9902l1.0859,3.73339-.375,3.333-.5966-.34759c.0087.246.0087.4902-.0039.7294-1.8194-2.6601-4.6661-4.6787-7.5489-4.833a17.57918,17.57918,0,0,0-8.5039,1.7735c-4.2607,1.5176-7.9541,4.6025-7.8935,9.6582.0781,6.4883,6.5273,10.2441,12.4511,10.18749a14.66919,14.66919,0,0,0,11.70951-6.02249l-.001.002q.11654,5.6967.20169,11.39349l.0029.00981c-.14259,13.8398,1.2173,30.6768,10.8262,41.45119,1.7451,1.957,9.1216-.82029,7.1841-2.99219-9.1314-10.2383-10.4615-26.8985-10.2896-40.0039a1.51827,1.51827,0,0,0-.04-.2696,1.34538,1.34538,0,0,0,.0439-.2656c-.0551-3.9492-.1338-7.8994-.2148-11.8496a19.63771,19.63771,0,0,0,8.0669-.5469c1.4844-.4785,3.6719-1.75,3.1562-3.6738-.4863-1.8145-3.0859-2.084-4.5708-1.6035a13.89378,13.89378,0,0,1-6.7695.041q-.11355-5.20755-.2261-10.416c.2842-3.9854,1.7925-8.2881,6.9868-6.7871,4.1949,1.2129,6.43511,5.3418,6.68711,9.4121.125,2.03509,7.88859.541,7.72649-2.0703C198.02336,59.41462,189.63666,55.58452,181.78756,56.94392Zm-23.2481,17.9765a10.388,10.388,0,0,1,4.1387,4.2471c-.3584-.0517-.709-.1142-1.0391-.19631a4.38484,4.38484,0,0,1-2.4355-1.58789l-.9024-1.6757A4.36587,4.36587,0,0,0,158.53946,74.92042Zm4.5391,10.9864c-1.2031,3.0976-3.3633,2.8281-5.7998,1.2363a8.911,8.911,0,0,1-3.7578-4.9492,2.62989,2.62989,0,0,1-.0664-.51171c2.7216,1.67971,6.8222,1.667,10.3125,1.17381A9.2421,9.2421,0,0,1,163.07856,85.90682Zm227.6255-3.4942c-1.209-4.6621-6.4278-7.9707-10.1114-10.5058-1.332-.919-2.67479-1.8145-3.9726-2.7744,1.6865-4.5723-1.4346-9.1368-6.7725-7.7041-5.6035,1.5-4.63669,6.16889-1.9912,9.539-.0351.0576-.0791.125-.10549.17189-2.44431,4.25781-6.125,8.17381-9.30661,11.89261a20.09484,20.09484,0,0,1-5.94339,5.1699c-2.10641,1.06049-3.55271-4.7734-3.82221-5.85551-1.2549-5.03019-1.2617-10.32419-1.3565-15.51949-.02729-2.6807-.1435-5.3047-.23529-7.7598-.19731-5.25971-.53521-10.6084-.78521-15.9795a77.80224,77.80224,0,0,0,15.0196-3.6045c4.5771-1.5722,3.3593-6.5429-1.3233-4.9375a67.86439,67.86439,0,0,1-13.9053,3.2989c-.2812-9.0928-.08979-18.1875,1.70121-26.961.78709-3.85539-7.123-2.8925-7.832.5782-1.77441,8.6963-1.86821,17.7334-1.60061,26.7002a40.8993,40.8993,0,0,1-5.8818-.6573c-3.60159-.6797-7.9112,4.336-2.7579,5.3086a47.87637,47.87637,0,0,0,8.835.792c.0879,2.1738.1797,4.3408.2598,6.49119.1728,4.65141.51751,9.375.6279,14.09181a2.14844,2.14844,0,0,0-.02539.2403c.042,1.2011.03419,2.75.03809,4.50289a58.51887,58.51887,0,0,1-1.5166,12.84861,16.47675,16.47675,0,0,1-1.8916,4.4063,32.02033,32.02033,0,0,1-.9961-5.0918,110.4859,110.4859,0,0,1-1.0947-17.3809c-.0059-4.084-7.8379-2.9258-7.83209.5781.001.6709.00689,1.3438.01269,2.0166-9.1191-3.9355-19.4101,2.6797-21.8955,11.753l.0244.0009c-.0234.0684-.0625.1309-.081.20219-.0498.19141-.10159.38281-.1524.57421-.0048.0186-.0029.0342-.0068.0537-.7715,3.0908-3.3643,13.751-5.10639,12.5635-4.07521-2.7812-3.63871-12.8203-3.75791-17.002-.4218-14.7167.879-29.3437,1.0391-44.0332.0449-4.2304-7.8135-3.2109-7.8535.4981-.1113,10.332-1.0488,20.6426-1.1162,30.9844-.002.3955-.0078.7939-.0108,1.1904a31.49625,31.49625,0,0,1-9.7138-2.0732q.0117-1.04445.0244-2.08791c.1631-14.57029.9355-29.34769.2461-43.90239-.4395-9.28709-6.7031-16.90039-16.8477-14.623-9.5244,2.1386-15.8916,12.36329-15.5312,21.82609.1504,3.9981,7.9453,2.7266,7.8183-.6269-.248-6.5215,4.6309-19.85159,13.1895-14.67189,3.1269,1.89059,3.46,6.77539,3.6123,9.98829.2353,4.9551-.0908,9.9707-.0967,14.9297-.0146,9.0449-.1006,18.0889-.1992,27.1338-2.3154.6885-4.6318,2.1201-3.8301,2.6015a33.25366,33.25366,0,0,0,3.7803,1.9424c-.17189,15.1651-.3682,30.3291-.376,45.4942-.00189,3.99019,7.8154,2.7558,7.8174-.625.0098-14.169.1738-28.336.3369-42.503a45.01241,45.01241,0,0,0,9.7373.66019c-.0703,7.13381-.0508,14.39841,1.43851,21.331,1.373,6.38481,6.41209,12.23251,13.48139,8.98831a11.90772,11.90772,0,0,0,4.6963-3.8896c4.4932,4.874,13.0537,4.9258,19.294.5361a14.62283,14.62283,0,0,0,3.1894-3.1357,7.88439,7.88439,0,0,0,2.0791,2.6025c2.7676,2.1816,7.0362.4082,9.1475-1.7988a19.54208,19.54208,0,0,0,1.8496-2.292c1.7324,3.4043,4.4941,5.5723,8.9209,5.081,6.1553-.6855,10.5244-5.0195,14.375-9.5214,2.5166-2.9415,5.1211-5.9717,7.3779-9.1973,4.1426,2.6807,8.9395,5.375,10.1563,10.0664,1.3838,5.3301-10.043,7.0312-9.8877,1.584.1152-4.0586-7.7324-2.9199-7.8301.584-.2978,10.5351,14.4336,9.3672,20.625,5.5312C389.872,90.69,391.84566,86.81112,390.70406,82.41262Zm-68.6416,6.2227c-5.209,6.3457-10.5694-.41411-10.4405-5.9727.0674-2.9316,1.4678-8.0322,4.2686-10.291a5.67986,5.67986,0,0,1,5.5224-.7851C328.11806,73.99472,325.21476,84.79542,322.06246,88.63532Z" fill="url(#linear-gradient)"/><path d="M296.30066,83.38921c.377,3.23241,1.3038,6.18461,2.9034,7.34961.0283-.0273.0615-.0625.0986-.1055.0293-.03411.0625-.07911.0937-.122-1.3359-4.1807-1.1484-10.0899-1.2334-13.0577-.4218-14.7167.879-29.3437,1.0391-44.0332a2.58407,2.58407,0,0,0-2.2568-2.6279c-.1543,12.5635-1.1172,25.0528-1.1172,37.55469,0,2.02831.0244,4.05661.084,6.084C295.97066,76.55521,295.89446,80.07672,296.30066,83.38921Zm-170.851-.01559a6.80071,6.80071,0,0,0-3.4566,1.5771,4.17756,4.17756,0,0,0-1.7636,2.8496c.0131.6553.3085,1.3106,1.5039,2.0157a7.16317,7.16317,0,0,0,.8139.3955c.4878-2.23731,3.5923-4.40731,5.8462-4.584a4.53752,4.53752,0,0,0,2.6279-1.0742,12.78285,12.78285,0,0,0,.8316-4.0577,2.7212,2.7212,0,0,0-1.8203-.833A4.98631,4.98631,0,0,1,125.44966,83.37362Zm225.34421-69.4903c.32329-1.5839-.82711-2.3437-2.33791-2.4609a102.941,102.941,0,0,0-1.7197,20.0723q0,2.74365.082,5.5009c.7315-.0986,1.459-.23341,2.1875-.3613A107.32319,107.32319,0,0,1,350.79387,13.88332Zm14.001,23.3604a4.78,4.78,0,0,1-3.23051,2.9482,79.11017,79.11017,0,0,1-14.4824,3.545c.2471,5.1318.5644,10.2529.75391,15.3017.09079,2.4502.209,5.083.23539,7.7734.0927,5.2051.1064,10.4405,1.3349,15.3526a16.1193,16.1193,0,0,0,1.9219,4.9072c.3154.4092.5752.5195.6621.5068a.4.4,0,0,0,.1738-.0488c.0401-.0205.0782-.0459.1192-.0664-.3106-.9375-.5176-1.7715-.6045-2.11721-1.2549-5.03019-1.2617-10.32419-1.3565-15.51949-.02729-2.6807-.1435-5.3047-.23529-7.7598-.19731-5.25971-.53521-10.6084-.78521-15.9795a77.80224,77.80224,0,0,0,15.0196-3.6045C368.23626,41.13821,367.90226,37.31892,364.79487,37.24372Zm-85.98631-9.1016c0,10.2852-.4122,20.5996-.5274,30.7969q-.0087.78375-.0176,1.5654c.7539.2813,1.5147.5186,2.27931.7315.17969-14.3448.91409-28.8828.23539-43.2061a17.45566,17.45566,0,0,0-4.35839-11.21289,19.71345,19.71345,0,0,1,2.10739,8.17579C278.73426,19.36092,278.80856,23.74762,278.80856,28.14212Zm101.19431,42.4512a5.56087,5.56087,0,0,0-2.41111-5.6699,6.90468,6.90468,0,0,1,.2363,1.7129,7.89556,7.89556,0,0,1-.32419,2.21189C378.32026,69.44,379.16006,70.01521,380.00287,70.59332Zm-259.689-5.3828c-.00971.3223-.02341.6426-.03271.9658a16.257,16.257,0,0,1,1.7984-.7607A4.26082,4.26082,0,0,0,120.31387,65.21052Zm6.22019,6.9043c-.0825-.0069-.1713-.0088-.271-.0088-2.8247-.0283-5.1523,2.4453-6.2783,5.2051-.001.07809-.0024.1562-.0034.2343a19.0564,19.0564,0,0,1,5.1201-1.538,6.28473,6.28473,0,0,1,4.4912-1.6397,6.16847,6.16847,0,0,1,.8545.1074A4.68617,4.68617,0,0,0,126.53406,72.11482Zm85.4073-24.4287c.749-.0283,1.5-.0508,2.248-.0782-.02149-1.8359-.0849-3.665-.2226-5.4785a2.79809,2.79809,0,0,0-2.2246-2.5449c.1464,2.1231.2109,4.26269.2109,6.4092Q211.95306,46.839,211.94136,47.68612Zm26.3984,26.3047a5.619,5.619,0,0,0-.5137-.6739,3.8302,3.8302,0,0,0-.90719-.7285,14.1759,14.1759,0,0,1,.57519,2.5791A13.059,13.059,0,0,1,238.33976,73.99082Zm-11.7051-22.8672c-.1777.0009-.3554.0088-.5332.0107a7.27525,7.27525,0,0,1-5.4629,2.1485c-2.9502.0166-5.9023.1093-8.8613.2167-.209,5.1172-.5195,10.2471-.5195,15.3116a66.512,66.512,0,0,0,1.9922,17.581c.247.9063.5293,1.9795.83591,2.875a6.59485,6.59485,0,0,0,.68359,1.5313c.02641-.0381.0547-.083.085-.1367a7.55971,7.55971,0,0,0,.5732-1.4688c-2.84079-10.7851-1.80079-22.1758-1.3711-33.416,3.1914-.1182,6.3838-.2256,9.5781-.2432,1.752-.0097,4.043-.5664,5.0996-2.1172C229.75966,51.91262,227.87106,51.11582,226.63466,51.12362ZM180.164,70.60212c.2842-3.9854,1.7925-8.2881,6.9864-6.7871.18651.0537.3642.1201.5429.1855a7.634,7.634,0,0,0-3.75339-2.4668,6.28719,6.28719,0,0,0-1.75731-.2783,3.38549,3.38549,0,0,0-3.1279,1.88479,10.92757,10.92757,0,0,0-1.1412,4.47361q.10335,4.88385.21241,9.7666a21.76838,21.76838,0,0,0,2.19049.2422Q180.23941,74.11142,180.164,70.60212Zm45.9824-9.7363a54.07186,54.07186,0,0,0-.416,7.206c0,.4063.0039.8145.0078,1.2227a20.49029,20.49029,0,0,1,2.2842-.7071,48.07387,48.07387,0,0,1,.4092-5.07321C228.65716,61.899,227.57216,61.06792,226.14636,60.86582Zm89.2071,28.6865a10.08873,10.08873,0,0,1-.7315-3.8897c.0674-2.9316,1.4678-8.0322,4.2686-10.291a5.6438,5.6438,0,0,1,4.86331-.9795,4.88166,4.88166,0,0,0-2.59771-2.1015,5.37389,5.37389,0,0,0-1.8496-.3428,4.96079,4.96079,0,0,0-2.9453,1.0068c-2.5059,1.961-3.9561,6.9864-3.9902,9.7412-.002.0371-.0039.0957-.002.1602a9.60744,9.60744,0,0,0,1.625,5.2158A6.67772,6.67772,0,0,0,315.35346,89.55232Zm-49.336-81.9795a6.46678,6.46678,0,0,0-3.3584-1.06149c-2.5654-.0225-4.7627,2.12588-6.32319,5.16988a22.46389,22.46389,0,0,0-2.37891,9.43651c0,.1553.00491.3086.0098.4883v.0781c-.125,2.58109-2.9463,3.7569-5.2901,3.7852-.0791.00189-.1601-.0088-.2392-.0098.4472,3.7051,7.9043,2.4316,7.7802-.8535-.2295-6.0283,3.9248-17.86129,11.3135-15.5293A4.45713,4.45713,0,0,0,266.01746,7.57282Zm-109.2944,78.2129c-.0727-.1953-.144-.3906-.2021-.5918a2.62989,2.62989,0,0,1-.0664-.51171,11.73617,11.73617,0,0,0,5.7041,1.43841c.0737-.14841.1474-.3066.2216-.4863a9.916,9.916,0,0,0,.5484-1.9189,27.40393,27.40393,0,0,1-3.0166.1777,15.35029,15.35029,0,0,1-5.2564-.8057A8.16546,8.16546,0,0,0,156.72306,85.78572Zm4.1919-7.89751a10.27335,10.27335,0,0,0-1.3389-1.39549l.253.4697A3.739,3.739,0,0,0,160.915,77.88821ZM334.70887,64.232a107.637,107.637,0,0,0,1.084,16.74219c.15429.97161.291,2.083.502,3.15621a13.51947,13.51947,0,0,0,.918-2.5303c.11709-.4765.22259-.955.32419-1.4345a131.20318,131.20318,0,0,1-.5791-13.4522A2.48916,2.48916,0,0,0,334.70887,64.232Zm-89.57511,18.8193c.6806-.4492,1.41111-.9453,2.1347-1.4727.6836-3.1562,2.583-6.35441,4.5987-6.9472a4.30523,4.30523,0,0,0-1.7198-2.20021c-.876.26371-1.707.55661-2.4658.85641a8.0481,8.0481,0,0,0-1.30469,1.7842,12.70975,12.70975,0,0,0-1.62991,5.836,5.55931,5.55931,0,0,0,.3067,1.93839C245.08,82.91562,245.10636,82.98292,245.13376,83.05132Zm6.7783,1.2178c-1.3799,1.1054-2.8867,2.1006-4.1114,2.8994-.0341-.07231-.0605-.1465-.0937-.2197-.0313.0205-.0625.04-.0938.0595a9.13,9.13,0,0,0,2.6875,1.9698c.0606.0293.1797.07709.3321.1357,1.75-1.1055,3.5136-2.2031,5.20311-3.3769a3.58722,3.58722,0,0,1,.94039-.668,27.16426,27.16426,0,0,0,5.60261-5.2324,4.71079,4.71079,0,0,0-1.26471-7.1202,5.06037,5.06037,0,0,1,.125,1.0665,5.72243,5.72243,0,0,1-1.2685,3.5126A32.407,32.407,0,0,1,251.91206,84.26912Zm122.1884,3.165a2.4305,2.4305,0,0,0,2.15341,1.916A2.45756,2.45756,0,0,0,374.10046,87.43412Zm-2.3642-3.6152c1.4941-1.8008,2.9619-3.6426,4.3027-5.5586.63091.4092,1.2783.8183,1.9258,1.2353-1.459-1.1425-3.1055-2.1855-4.7285-3.2197-2.0899,2.916-4.4297,5.6572-6.7012,8.3115a6.9419,6.9419,0,0,1,3.5889-1.0117A5.42034,5.42034,0,0,1,371.73626,83.81892ZM337.83487,44.34721a48.75458,48.75458,0,0,1-7.46381-.66889c-.1036.9296.5175,1.789,2.3505,2.1347a45.04522,45.04522,0,0,0,5.19831.6524C337.89056,45.75832,337.86416,45.05721,337.83487,44.34721ZM103.62346,52.46342a4.84684,4.84684,0,0,1,2.3525.5264,2.34291,2.34291,0,0,1,.8062.7236,144.821,144.821,0,0,0,17.791.2129c1.7012-.08011,3.9512-.623,5.1465-1.9394,1.2129-1.334-1.043-1.6602-1.9199-1.6192-.564.0264-1.1221.0332-1.6841.0518a9.901,9.901,0,0,1-4.5069,1.2549l-.0356-.7481.03371.7481q-3.69947.1698-7.38431.1757a130.8801,130.8801,0,0,1-20.5122-1.5527c.6851,11.4209,1.08251,22.877,1.08251,34.3242q0,7.73445-.25091,15.46a3.32489,3.32489,0,0,1-2.1949,2.5674,8.97728,8.97728,0,0,1-3.2563.8339c-.0064.1915-.0083.3829-.0147.57429-.1045,3.11721,7.63281,1.47851,7.71681-1.002.11429-3.42279.17779-6.84959.21439-10.27639-.0801-.1835-.1577-.3691-.2305-.55761A32.51234,32.51234,0,0,1,95.082,80.77882a66.31522,66.31522,0,0,1,1.2104-12.538,2.45561,2.45561,0,0,1,.354-.7862q-.28335-7.52925-.7417-15.0478c1.5523.2588,3.1075.4746,4.6641.6709A8.497,8.497,0,0,1,103.62346,52.46342Zm159.102,35.4893a18.01542,18.01542,0,0,1-5.39159,4.3818,8.0305,8.0305,0,0,1-1.60151,1.4981c.0742-.0518-.293-.2188-.7832-.4141a17.77071,17.77071,0,0,1-6.1328,1.1621,13.03581,13.03581,0,0,1-8.0059-2.5801,21.6939,21.6939,0,0,0-2.335,2.4893,8.28086,8.28086,0,0,1-2.8681,1.7305,13.91948,13.91948,0,0,1-2.8643.87589,15.50337,15.50337,0,0,0,.4776,1.66411c.6953,1.9551,6.8476-.6973,7.6699-1.7363a23.07192,23.07192,0,0,1,2.8935-3.0069c7.044,5.9883,18.9434,1.6533,22.8916-5.7998C266.96087,87.67921,264.82416,87.58742,262.72546,87.95272Zm6.168-23.3653.0176.00979c.0029-.19529.0049-.38959.00681-.585l-.02931-.01359C268.69526,64.24372,268.66987,64.45362,268.89346,64.58742Zm-68.5303-8.4248c.72171-.0039,1.4424-.0302,2.1631-.042.0225-.7675.0479-1.5351.0674-2.3017-1.4473.04-2.8965.0625-4.3457.0771C197.26556,55.38332,199.13466,56.16852,200.36316,56.16262Zm27.2872,18.8994a22.67327,22.67327,0,0,0-1.6016,5.2608,1.52137,1.52137,0,0,1-.209.5166,42.57589,42.57589,0,0,1-.83789,7.2705c-1.03711,4.6006-5.57811,11.4385-11.31641,11.5645a6.54262,6.54262,0,0,1-2.2422-.3985,12.00066,12.00066,0,0,0,1.2578,1.1602c6.4297,5.07809,13.4102-4.0078,14.5684-9.4805a42.56046,42.56046,0,0,0,.8301-7.3652.95219.95219,0,0,0,.2109-.4043c.0391-.208.0928-.4092.1358-.6153a33.605,33.605,0,0,0-.2276-4.2783A20.715,20.715,0,0,0,227.65036,75.062Zm50.54-8.2792c-.1592,13.873-.3164,27.747-.3252,41.6152-.1289,2.6348-3.0117,3.8389-5.3789,3.86619-.0527,0-.1055-.00779-.1592-.00879.3135,3.6924,7.7861,2.4531,7.7881-.8564.0098-14.169.1738-28.336.3369-42.503a42.30652,42.30652,0,0,0,5.96781.6377q.00284-1.10745.01169-2.2099c-.3516.0068-.7051.0107-1.0576.0127A45.40759,45.40759,0,0,1,278.19036,66.78282Zm-173.022,2.1582a51.05319,51.05319,0,0,0-.7182,8.65619c0,1.43751.0532,2.86821.1508,4.27251a26.36355,26.36355,0,0,0,1.231,7.3613c.1143.3105.2285.623.3506.9219a23.757,23.757,0,0,0,.9184-2.3399c-.1108-.9687-.1816-1.9404-.2475-2.8906a54.00515,54.00515,0,0,1,.85541-14.66021C107.92816,69.22612,106.70056,68.85792,105.16836,68.941Zm94.1441-.8145c.0019.0361.0019.0713.0019.1074-.0547,1.417-1.2256,2.2276-2.4453,2.7989a10.4696,10.4696,0,0,1-3.1934.8398,12.718,12.718,0,0,1,.16221,1.3545c.125,2.03509,7.88859.541,7.72649-2.0703a11.41278,11.41278,0,0,0-3.39449-7.6602A12.88829,12.88829,0,0,1,199.31246,68.12652Zm165.416,19.34769a3.4957,3.4957,0,0,1,.2529-1.10359c-3.5947,4.0059-7.8096,7.6983-13.6201,8.3545q-.65925.066-1.291.0713a8.85409,8.85409,0,0,1-3.166-.5586,7.96491,7.96491,0,0,0,7.3818,2.7412c4.4434-.4951,7.9541-2.8945,11.0127-5.88281a8.92771,8.92771,0,0,1-.5772-3.291C364.72156,87.69192,364.72356,87.58062,364.72846,87.47421Zm-22.4522,2.80761a17.7411,17.7411,0,0,1-1.2207,1.4267,9.90077,9.90077,0,0,1-6.6709,3.0235,6.06943,6.06943,0,0,1-1.3593-.167,7.15231,7.15231,0,0,0,1.3427,1.4238c2.7676,2.1816,7.0362.4082,9.1475-1.7988.3848-.4014.73631-.8223,1.0742-1.252A10.32542,10.32542,0,0,1,342.27626,90.28182Zm-13.0849,1.415a14.6868,14.6868,0,0,1-2.6621,2.4375,18.279,18.279,0,0,1-10.40039,3.3428,14.60714,14.60714,0,0,1-6.09181-1.2686c4.54881,4.64069,12.92381,4.6319,19.0625.3135a14.09739,14.09739,0,0,0,2.6084-2.4219,5.07526,5.07526,0,0,1-.8037-.5234A8.04841,8.04841,0,0,1,329.19136,91.69682Zm-26.7696,5.86039a10.18073,10.18073,0,0,1-4.2343.99121,8.46989,8.46989,0,0,1-3.0459-.5908,8.12385,8.12385,0,0,0,9.9677,1.9179,11.85205,11.85205,0,0,0,4.6329-3.8135,11.828,11.828,0,0,1-2.8682-1.9472A12.47559,12.47559,0,0,1,302.42176,97.55721Zm91.2823-12.14459a11.35419,11.35419,0,0,0-2.8877-4.8369,9.84326,9.84326,0,0,1,.6113,1.6494,10.01194,10.01194,0,0,1-4.9316,11.4385,22.227,22.227,0,0,1-10.9707,2.8613,15.2676,15.2676,0,0,1-5.5157-.9345c3.8887,4.8379,14.1778,3.4804,19.0928.4355C392.872,93.69,394.84566,89.81112,393.70406,85.41262ZM60.25627,63.25642a14.42013,14.42013,0,0,1,1.5986,6.6191A18.55078,18.55078,0,0,1,55.288,83.47121a34.45106,34.45106,0,0,1-9.5302,5.78521c-.1299.0586-.2622.1113-.3931.167l-.0942.0381q-.80505.33825-1.6294.6093a43.69106,43.69106,0,0,1-12.9492,2.4395q-.487.0132-.96.0137a31.16,31.16,0,0,1-16.0147-4.4405,30.40555,30.40555,0,0,0,19.9546,6.67869c8.376-.25779,17.7637-3.27139,24.1211-8.85349,6.003-5.27151,8.6973-14.084,3.709-21.1074A17.414,17.414,0,0,0,60.25627,63.25642Zm35.1206-18.7158c-.09671-1.3399-.18851-2.6807-.293-4.0186-.06341-.8066-.95941-1.1621-2.11521-1.1816.1206,1.6054.24221,3.2099.3526,4.8174C94.00676,44.29252,94.69187,44.41462,95.37687,44.54062Zm9.04879,20.9609a1.7995,1.7995,0,0,1,.7417.5801c1.7642-.377,3.4366-1.3965,3.5533-2.77441a16.10781,16.10781,0,0,1,.5205-4.36329c.7353-1.8028-.5879-2.6211-2.3081-2.709a16.19461,16.19461,0,0,0-.4659,4.1348,3.63187,3.63187,0,0,1-2.1259,2.7207,7.87551,7.87551,0,0,1-3.3892.8877l-.0088.1084a1.75225,1.75225,0,0,0,.2989,1.1953,9.43168,9.43168,0,0,1,1.3286-.1143A4.50613,4.50613,0,0,1,104.42566,65.50152Zm-50.875-24.5742c-6.5156-1.33111-13.7641-2.87311-20.6733-2.87011a36.1758,36.1758,0,0,0-7.6636.77541,38.16444,38.16444,0,0,0-4.8325,1.664c-7.1558,3.584-11.54,11.3711-11.729,19.669-.0068.22359-.0093.4531-.0093.68159a28.23274,28.23274,0,0,0,6.1695,17.95411,30.005,30.005,0,0,1-3.9102-15.6562c.2256-10.004,6.3789-19.375,16.2236-21.8457,9.4053-2.3633,20.2842.0019,29.5752,1.8945,9.2959,1.8945,18.41559,4.5254,27.63039,6.7607-.0332-.5127-.05759-1.0263-.0913-1.539C73.94276,46.03862,63.83787,43.023,53.55067,40.92732Zm-19.5468,31.5586a10.387,10.387,0,0,1-4.0493-.8164,9.656,9.656,0,0,0,15.2192-11.752c.436.211.8638.4414,1.2866.68169a24.551,24.551,0,0,0-2.6011-1.89359,10.40894,10.40894,0,0,1-9.8554,13.7803ZM158.05026,93.09621h-.0997a15.30839,15.30839,0,0,1-6.5419-1.48429,13.78327,13.78327,0,0,0,9.6757,3.73629,15.0389,15.0389,0,0,0,8.0762-2.501c-.0264-1.49119-.0478-2.98049-.0771-4.47169A15.65933,15.65933,0,0,1,158.05026,93.09621Zm31.0044,43.61531a1.76566,1.76566,0,0,1,.0234.2373c-.0733,1.3066-1.1397,2.0488-2.293,2.6621a9.32441,9.32441,0,0,1-3.9516.9834c-.1089-.001-.2154-.0137-.3233-.0196.4248.545.8511,1.0889,1.3135,1.60749,1.7446,1.957,9.1216-.82029,7.1841-2.99219A28.96468,28.96468,0,0,1,189.05466,136.71152Zm.3847-55.8614c-.47649,1.78809-2.3769,2.6797-3.6357,3.1162a17.14543,17.14543,0,0,1-5.274.75489c-.7553-.00089-1.5092-.03809-2.2553-.09759.0737,3.6572.146,7.3144.1953,10.9717a.42949.42949,0,0,1,.001.0664l.0219,1.4052-.0346-.0234q-.0051.59175-.0054,1.1963c-.0103,12.2197,1.57131,26.8623,9.2095,36.3496-6.1114-10.1885-7.0918-24.1104-6.9439-35.4033a1.51827,1.51827,0,0,0-.04-.2696,1.34538,1.34538,0,0,0,.0439-.2656c-.0551-3.9492-.1338-7.8994-.2148-11.8496a19.63818,19.63818,0,0,0,8.0669-.5469c1.4844-.4785,3.6719-1.75,3.1562-3.6738A2.60991,2.60991,0,0,0,189.43936,80.85012Zm-48.0791-1.5605a17.717,17.717,0,0,1-1.33739,6.72459c-2.13481,5.18361-6.45991,10.16991-12.29151,11.541a20.59349,20.59349,0,0,1-4.5454.52251,17.51139,17.51139,0,0,1-3.2446-.294c.1591,15.4346.6411,30.8809.8569,46.3301v.0996l-.00539.0225c-.09961,1.3769-1.25531,2.1894-2.456,2.75a10.59444,10.59444,0,0,1-3.04151.8252c.0068.4619.01851.9228.0249,1.3847.0283,1.9668,7.76461.6036,7.7275-2.0703-.2197-15.7558-.7168-31.5185-.8662-47.27831a18.09364,18.09364,0,0,0,8.3818-.02249c5.4981-1.2773,9.7051-6.0742,11.7666-11.0937,2.3941-5.8272,1.3682-12.4111-2.5698-16.5029A15.90823,15.90823,0,0,1,141.36026,79.28962ZM106.96676,97.398a10.5403,10.5403,0,0,1-3.0035.4775,7.044,7.044,0,0,1-2.0092-.2754c1.6772,2.1729,4.165,3.1729,7.79981,2.08009.34029-.10249.65179-.22949.96679-.35449-.0122-1.2549-.0371-2.5088-.0445-3.7637A11.96932,11.96932,0,0,1,106.96676,97.398Z" fill="url(#linear-gradient-2)"/></g></g></svg>